<svg width="55" height="55" viewBox="0 0 55 55" fill="none" xmlns="http://www.w3.org/2000/svg">
<rect opacity="0.55" width="55" height="55" rx="27.5" fill="#00DEDF"/>
<path d="M27.3361 26.6772C27.7008 27.1094 28.2999 27.1094 28.6645 26.6772L34.2958 19.9856C35.9368 18.0449 35.8441 14.8234 34.0015 13.0303C32.3929 11.4629 30.0033 11.7471 28.5369 13.4829L27.9561 14.1618L27.4195 13.4803C25.9557 11.7444 23.5594 11.4603 21.9132 13.028C20.1212 14.8222 20.017 18.0461 21.6684 19.9856L27.3361 26.6772ZM42.5995 31.7047C41.9161 30.6612 40.6127 30.4356 39.686 31.2085L33.4504 36.3749H27.1679C26.7122 36.3749 26.3813 35.9501 26.3813 35.4901C26.3813 34.9776 26.7589 34.6053 27.1679 34.6053H31.2442C32.0308 34.6053 32.8461 33.9684 32.9826 33.0455C33.1519 31.9263 32.3512 30.8558 31.3354 30.8558H22.9551C21.5954 30.8558 20.1879 31.3978 19.0939 32.3939L16.6715 34.6053L13.7871 34.6038C13.3314 34.6038 13.0005 35.0301 13.0005 35.5425L13 41.0625C13 41.5781 13.3777 42 13.7866 42H31.8162C32.9638 42 34.1041 41.5789 35.0304 40.8117L42.0682 34.9808C43.084 34.2126 43.282 32.7478 42.5995 31.7047Z" fill="white"/>
</svg>
