<svg width="55" height="55" viewBox="0 0 55 55" fill="none" xmlns="http://www.w3.org/2000/svg">
<rect opacity="0.55" width="55" height="55" rx="27.5" fill="#CE8EDB"/>
<path d="M27.5 11C31.8761 11 36.0729 12.7384 39.1673 15.8327C42.2616 18.9271 44 23.1239 44 27.5C44 31.8761 42.2616 36.0729 39.1673 39.1673C36.0729 42.2616 31.8761 44 27.5 44" stroke="white" stroke-width="2"/>
<path d="M9.29289 26.2929C8.90237 26.6834 8.90237 27.3166 9.29289 27.7071L15.6569 34.0711C16.0474 34.4616 16.6805 34.4616 17.0711 34.0711C17.4616 33.6805 17.4616 33.0474 17.0711 32.6569L11.4142 27L17.0711 21.3431C17.4616 20.9526 17.4616 20.3195 17.0711 19.9289C16.6805 19.5384 16.0474 19.5384 15.6569 19.9289L9.29289 26.2929ZM36 26L10 26V28L36 28V26Z" fill="white"/>
</svg>
